<svg xmlns="http://www.w3.org/2000/svg" xmlns:xlink="http://www.w3.org/1999/xlink" viewBox="0,0,256,256" width="35px" height="35px"><g fill="#818a91" fill-rule="nonzero" stroke="none" stroke-width="1" stroke-linecap="butt" stroke-linejoin="miter" stroke-miterlimit="10" stroke-dasharray="" stroke-dashoffset="0" font-family="none" font-weight="none" font-size="none" text-anchor="none" style="mix-blend-mode: normal"><g transform="scale(5.33333,5.33333)"><path d="M24,14.088c-12.573,0 -22.892,9.628 -24,21.912h48c-1.108,-12.284 -11.427,-21.912 -24,-21.912zM33.179,27.079c0,-1.104 0.895,-1.999 1.999,-1.999c1.104,0 1.999,0.895 1.999,1.999c0,1.104 -0.895,1.999 -1.999,1.999c-1.104,0 -1.999,-0.895 -1.999,-1.999zM12.822,29.078c-1.104,0 -1.999,-0.895 -1.999,-1.999c0,-1.104 0.895,-1.999 1.999,-1.999c1.104,0 1.999,0.895 1.999,1.999c0,1.104 -0.895,1.999 -1.999,1.999z"></path><path d="M34.038,19.313c-0.14,0 -0.281,-0.035 -0.41,-0.11c-0.393,-0.227 -0.527,-0.729 -0.301,-1.122l5.197,-9.008c0.227,-0.394 0.729,-0.529 1.122,-0.301c0.393,0.227 0.527,0.729 0.301,1.122l-5.197,9.008c-0.152,0.264 -0.428,0.411 -0.712,0.411z"></path><path d="M13.962,19.313c-0.284,0 -0.56,-0.148 -0.712,-0.411l-5.196,-9.008c-0.227,-0.393 -0.092,-0.895 0.3,-1.122c0.392,-0.228 0.895,-0.093 1.122,0.301l5.197,9.008c0.227,0.394 0.092,0.896 -0.301,1.122c-0.129,0.075 -0.27,0.11 -0.41,0.11z"></path></g></g></svg>