<?xml version="1.0" encoding="UTF-8"?>
<svg xmlns="http://www.w3.org/2000/svg" xmlns:xlink="http://www.w3.org/1999/xlink" width="35px" height="35px" viewBox="0 0 35 35" version="1.1">
<g id="surface1">
<path style=" stroke:none;fill-rule:nonzero;fill:rgb(50.588235%,54.117647%,56.862745%);fill-opacity:1;" d="M 23.550781 10.9375 C 22.558594 4.832031 20.21875 0.546875 17.5 0.546875 C 14.78125 0.546875 12.441406 4.832031 11.449219 10.9375 Z M 10.9375 17.5 C 10.9375 19.015625 11.019531 20.472656 11.164062 21.875 L 23.828125 21.875 C 23.972656 20.472656 24.054688 19.015625 24.054688 17.5 C 24.054688 15.984375 23.972656 14.527344 23.828125 13.125 L 11.164062 13.125 C 11.019531 14.527344 10.9375 15.984375 10.9375 17.5 Z M 33.132812 10.9375 C 31.179688 6.296875 27.21875 2.707031 22.332031 1.257812 C 24 3.570312 25.148438 7.046875 25.75 10.9375 Z M 12.660156 1.257812 C 7.78125 2.707031 3.8125 6.296875 1.867188 10.9375 L 9.25 10.9375 C 9.84375 7.046875 10.992188 3.570312 12.660156 1.257812 Z M 33.867188 13.125 L 26.023438 13.125 C 26.167969 14.5625 26.25 16.03125 26.25 17.5 C 26.25 18.96875 26.167969 20.4375 26.023438 21.875 L 33.859375 21.875 C 34.234375 20.472656 34.445312 19.015625 34.445312 17.5 C 34.445312 15.984375 34.234375 14.527344 33.867188 13.125 Z M 8.75 17.5 C 8.75 16.03125 8.832031 14.5625 8.976562 13.125 L 1.132812 13.125 C 0.765625 14.527344 0.546875 15.984375 0.546875 17.5 C 0.546875 19.015625 0.765625 20.472656 1.132812 21.875 L 8.96875 21.875 C 8.832031 20.4375 8.75 18.96875 8.75 17.5 Z M 11.449219 24.0625 C 12.441406 30.167969 14.78125 34.453125 17.5 34.453125 C 20.21875 34.453125 22.558594 30.167969 23.550781 24.0625 Z M 22.339844 33.742188 C 27.222656 32.292969 31.1875 28.703125 33.140625 24.0625 L 25.757812 24.0625 C 25.15625 27.953125 24.007812 31.429688 22.339844 33.742188 Z M 1.867188 24.0625 C 3.820312 28.703125 7.78125 32.292969 12.667969 33.742188 C 11 31.429688 9.851562 27.953125 9.25 24.0625 Z M 1.867188 24.0625 "/>
</g>
</svg>
